<svg width="24" height="24" viewBox="0 0 24 24" fill="none" xmlns="http://www.w3.org/2000/svg">
<path d="M20.9 13C20.9 12.5029 20.4971 12.1 20 12.1C19.5029 12.1 19.1 12.5029 19.1 13L20.9 13ZM13.8589 20.781L14.0681 21.6564L13.8589 20.781ZM19.1 13C19.1 14.5961 18.5622 16.1457 17.5733 17.3987L18.9863 18.5138C20.2258 16.9432 20.9 15.0008 20.9 13L19.1 13ZM17.5733 17.3987C16.5845 18.6516 15.2023 19.5348 13.6498 19.9057L14.0681 21.6564C16.0141 21.1915 17.7467 20.0844 18.9863 18.5138L17.5733 17.3987ZM13.6498 19.9057C12.0974 20.2766 10.4652 20.1135 9.01681 19.4429L8.26051 21.0763C10.0761 21.9169 12.122 22.1213 14.0681 21.6564L13.6498 19.9057ZM9.01681 19.4429C7.56839 18.7722 6.38821 17.6331 5.66673 16.2093L4.06111 17.0229C4.9655 18.8077 6.44489 20.2356 8.26051 21.0763L9.01681 19.4429ZM5.66673 16.2093C4.94525 14.7855 4.72456 13.1602 5.04029 11.5956L3.27585 11.2395C2.88008 13.2008 3.15672 15.2382 4.06111 17.0229L5.66673 16.2093ZM5.04029 11.5956C5.35601 10.031 6.18973 8.6184 7.40688 7.58583L6.24243 6.21322C4.7167 7.50757 3.67162 9.27827 3.27585 11.2395L5.04029 11.5956ZM7.40688 7.58583C8.62404 6.55325 10.1536 5.96093 11.7488 5.90445L11.6851 4.10557C9.68552 4.17637 7.76816 4.91887 6.24243 6.21322L7.40688 7.58583ZM11.7488 5.90445C13.3439 5.84797 14.9115 6.33062 16.1987 7.27452L17.2631 5.82299C15.6497 4.6398 13.6846 4.03477 11.6851 4.10557L11.7488 5.90445Z" fill="#A5A5A5"/>
<path d="M13 8L17 6.75L15.4 3" stroke="#A5A5A5" stroke-width="1.8" stroke-linecap="round" stroke-linejoin="round"/>
</svg>
