<svg width="24" height="24" viewBox="0 0 24 24" fill="none" xmlns="http://www.w3.org/2000/svg">
<circle cx="12" cy="13" r="4" stroke="white" stroke-width="1.6"/>
<path fill-rule="evenodd" clip-rule="evenodd" d="M8.80431 4.14405C9.33575 3.54383 10.099 3.2002 10.9007 3.2002H13.466C14.3741 3.2002 15.2259 3.64066 15.7508 4.38175L16.153 4.94955L16.9139 6.02372H19.0002C20.5466 6.02372 21.8002 7.27732 21.8002 8.82372V18.0002C21.8002 19.5466 20.5466 20.8002 19.0002 20.8002H5.0002C3.4538 20.8002 2.2002 19.5466 2.2002 18.0002V12.4708V8.82372C2.2002 7.27733 3.4538 6.02372 5.0002 6.02372H7.14001L8.80431 4.14405ZM10.9007 4.8002C10.5571 4.8002 10.23 4.94747 10.0022 5.2047L8.09915 7.35405C7.94731 7.52554 7.72925 7.62372 7.5002 7.62372H5.0002C4.33745 7.62372 3.8002 8.16098 3.8002 8.82372V12.4708V18.0002C3.8002 18.6629 4.33745 19.2002 5.0002 19.2002H19.0002C19.6629 19.2002 20.2002 18.6629 20.2002 18.0002V8.82372C20.2002 8.16098 19.6629 7.62372 19.0002 7.62372H16.5002C16.2407 7.62372 15.9974 7.49788 15.8474 7.28614L14.8474 5.87437L14.4452 5.30657C14.2202 4.98896 13.8552 4.8002 13.466 4.8002H10.9007Z" fill="white"/>
</svg>
