<svg width="204" height="85" viewBox="0 0 204 85" fill="none" xmlns="http://www.w3.org/2000/svg">
<path d="M23.416 20.664V36H16.216V22.68C16.216 21.928 16.032 21.248 15.664 20.64C15.296 20.016 14.808 19.528 14.2 19.176C13.592 18.808 12.912 18.624 12.16 18.624C11.408 18.624 10.72 18.808 10.096 19.176C9.488 19.528 9 20.016 8.632 20.64C8.28 21.248 8.104 21.928 8.104 22.68V36H0.904L0.88 -2.86102e-06H8.08L8.104 13.512C8.904 12.824 9.816 12.288 10.84 11.904C11.864 11.52 12.944 11.328 14.08 11.328C15.808 11.328 17.376 11.752 18.784 12.6C20.192 13.432 21.312 14.552 22.144 15.96C22.992 17.368 23.416 18.936 23.416 20.664ZM27.2481 27.288V12H34.4481V25.272C34.4481 26.024 34.6321 26.712 35.0001 27.336C35.3681 27.944 35.8561 28.432 36.4641 28.8C37.0881 29.152 37.7681 29.328 38.5041 29.328C39.2561 29.328 39.9361 29.152 40.5441 28.8C41.1681 28.432 41.6561 27.944 42.0081 27.336C42.3761 26.712 42.5601 26.024 42.5601 25.272V12H49.7601L49.7841 36H42.5841L42.5601 34.44C41.7601 35.128 40.8481 35.664 39.8241 36.048C38.8001 36.432 37.7201 36.624 36.5841 36.624C34.8721 36.624 33.3041 36.208 31.8801 35.376C30.4721 34.528 29.3441 33.4 28.4961 31.992C27.6641 30.584 27.2481 29.016 27.2481 27.288ZM54.5988 36V12H61.7988V13.512C62.5988 12.824 63.5108 12.288 64.5348 11.904C65.5588 11.52 66.6388 11.328 67.7748 11.328C69.3748 11.328 70.8468 11.696 72.1908 12.432C73.5348 13.152 74.6228 14.12 75.4548 15.336C76.3028 14.12 77.3908 13.152 78.7188 12.432C80.0628 11.696 81.5268 11.328 83.1108 11.328C84.8388 11.328 86.4068 11.752 87.8148 12.6C89.2228 13.432 90.3428 14.552 91.1748 15.96C92.0228 17.368 92.4468 18.936 92.4468 20.664V36H85.2468V22.68C85.2468 21.928 85.0628 21.248 84.6948 20.64C84.3268 20.032 83.8388 19.544 83.2308 19.176C82.6228 18.808 81.9428 18.624 81.1908 18.624C80.4388 18.624 79.7508 18.808 79.1268 19.176C78.5188 19.544 78.0308 20.032 77.6628 20.64C77.2948 21.248 77.1108 21.928 77.1108 22.68V36H69.9108V22.68C69.9108 21.928 69.7268 21.248 69.3588 20.64C69.0068 20.032 68.5188 19.544 67.8948 19.176C67.2868 18.808 66.6068 18.624 65.8548 18.624C65.1188 18.624 64.4388 18.808 63.8148 19.176C63.2068 19.544 62.7188 20.032 62.3508 20.64C61.9828 21.248 61.7988 21.928 61.7988 22.68V36H54.5988ZM97.255 36V12H104.455V13.512C105.255 12.824 106.167 12.288 107.191 11.904C108.215 11.52 109.295 11.328 110.431 11.328C112.031 11.328 113.503 11.696 114.847 12.432C116.191 13.152 117.279 14.12 118.111 15.336C118.959 14.12 120.047 13.152 121.375 12.432C122.719 11.696 124.183 11.328 125.767 11.328C127.495 11.328 129.063 11.752 130.471 12.6C131.879 13.432 132.999 14.552 133.831 15.96C134.679 17.368 135.103 18.936 135.103 20.664V36H127.903V22.68C127.903 21.928 127.719 21.248 127.351 20.64C126.983 20.032 126.495 19.544 125.887 19.176C125.279 18.808 124.599 18.624 123.847 18.624C123.095 18.624 122.407 18.808 121.783 19.176C121.175 19.544 120.687 20.032 120.319 20.64C119.951 21.248 119.767 21.928 119.767 22.68V36H112.567V22.68C112.567 21.928 112.383 21.248 112.015 20.64C111.663 20.032 111.175 19.544 110.551 19.176C109.943 18.808 109.263 18.624 108.511 18.624C107.775 18.624 107.095 18.808 106.471 19.176C105.863 19.544 105.375 20.032 105.007 20.64C104.639 21.248 104.455 21.928 104.455 22.68V36H97.255ZM139.911 12H147.111V36H139.911V12ZM143.559 9.504C142.519 9.504 141.647 9.16 140.943 8.472C140.239 7.784 139.887 6.928 139.887 5.904C139.887 4.896 140.239 4.048 140.943 3.36C141.647 2.656 142.511 2.304 143.535 2.304C144.543 2.304 145.391 2.656 146.079 3.36C146.783 4.048 147.135 4.896 147.135 5.904C147.135 6.928 146.791 7.784 146.103 8.472C145.431 9.16 144.583 9.504 143.559 9.504ZM175.104 20.664V36H167.904V22.68C167.904 21.928 167.72 21.248 167.352 20.64C166.984 20.016 166.496 19.528 165.888 19.176C165.28 18.808 164.6 18.624 163.848 18.624C163.096 18.624 162.408 18.808 161.784 19.176C161.176 19.528 160.688 20.016 160.32 20.64C159.968 21.248 159.792 21.928 159.792 22.68V36H152.592L152.568 12H159.768L159.792 13.512C160.592 12.824 161.504 12.288 162.528 11.904C163.552 11.52 164.632 11.328 165.768 11.328C167.496 11.328 169.064 11.752 170.472 12.6C171.88 13.432 173 14.552 173.832 15.96C174.68 17.368 175.104 18.936 175.104 20.664ZM196.563 12H203.763V36.24C203.763 38.064 203.395 39.696 202.659 41.136C201.939 42.592 200.947 43.832 199.683 44.856C198.419 45.88 196.963 46.656 195.315 47.184C193.683 47.728 191.955 48 190.131 48C188.435 48 186.811 47.672 185.259 47.016C183.707 46.376 182.323 45.48 181.107 44.328C179.891 43.176 178.931 41.84 178.227 40.32L184.803 37.344C185.139 38.064 185.579 38.672 186.123 39.168C186.667 39.68 187.283 40.072 187.971 40.344C188.659 40.616 189.379 40.752 190.131 40.752C190.963 40.752 191.763 40.664 192.531 40.488C193.299 40.312 193.987 40.04 194.595 39.672C195.203 39.304 195.683 38.832 196.035 38.256C196.387 37.696 196.563 37.024 196.563 36.24V33.888C195.843 34.704 194.987 35.368 193.995 35.88C193.019 36.376 191.891 36.624 190.611 36.624C188.867 36.624 187.235 36.296 185.715 35.64C184.195 34.984 182.851 34.08 181.683 32.928C180.531 31.76 179.627 30.416 178.971 28.896C178.315 27.376 177.987 25.744 177.987 24C177.987 22.256 178.315 20.624 178.971 19.104C179.627 17.584 180.531 16.248 181.683 15.096C182.851 13.928 184.195 13.016 185.715 12.36C187.235 11.704 188.867 11.376 190.611 11.376C191.891 11.376 193.019 11.632 193.995 12.144C194.987 12.64 195.843 13.296 196.563 14.112V12ZM190.707 29.712C191.699 29.712 192.603 29.456 193.419 28.944C194.235 28.432 194.883 27.744 195.363 26.88C195.843 26.016 196.083 25.056 196.083 24C196.083 22.944 195.843 21.984 195.363 21.12C194.883 20.256 194.235 19.568 193.419 19.056C192.603 18.544 191.699 18.288 190.707 18.288C189.731 18.288 188.835 18.544 188.019 19.056C187.219 19.568 186.579 20.256 186.099 21.12C185.619 21.984 185.379 22.944 185.379 24C185.379 25.056 185.619 26.016 186.099 26.88C186.579 27.744 187.219 28.432 188.019 28.944C188.835 29.456 189.731 29.712 190.707 29.712ZM14.128 59.328C16.464 59.328 18.592 59.896 20.512 61.032C22.432 62.168 23.96 63.696 25.096 65.616C26.232 67.52 26.8 69.632 26.8 71.952C26.8 73.696 26.472 75.336 25.816 76.872C25.16 78.408 24.248 79.76 23.08 80.928C21.928 82.08 20.584 82.984 19.048 83.64C17.528 84.296 15.888 84.624 14.128 84.624C12.864 84.624 11.728 84.352 10.72 83.808C9.712 83.264 8.832 82.576 8.08 81.744V84H0.88V48H8.08V62.208C8.832 61.36 9.712 60.672 10.72 60.144C11.728 59.6 12.864 59.328 14.128 59.328ZM14.032 77.664C15.024 77.664 15.928 77.408 16.744 76.896C17.56 76.384 18.208 75.696 18.688 74.832C19.168 73.968 19.408 73.008 19.408 71.952C19.408 70.912 19.168 69.96 18.688 69.096C18.208 68.232 17.56 67.544 16.744 67.032C15.928 66.504 15.024 66.24 14.032 66.24C13.056 66.24 12.16 66.504 11.344 67.032C10.544 67.544 9.904 68.232 9.424 69.096C8.944 69.96 8.704 70.912 8.704 71.952C8.704 73.008 8.944 73.968 9.424 74.832C9.904 75.696 10.544 76.384 11.344 76.896C12.16 77.408 13.056 77.664 14.032 77.664ZM29.7081 60H36.9081V84H29.7081V60ZM33.3561 57.504C32.3161 57.504 31.4441 57.16 30.7401 56.472C30.0361 55.784 29.6841 54.928 29.6841 53.904C29.6841 52.896 30.0361 52.048 30.7401 51.36C31.4441 50.656 32.3081 50.304 33.3321 50.304C34.3401 50.304 35.1881 50.656 35.8761 51.36C36.5801 52.048 36.9321 52.896 36.9321 53.904C36.9321 54.928 36.5881 55.784 35.9001 56.472C35.2281 57.16 34.3801 57.504 33.3561 57.504ZM42.3884 84L42.3644 60H49.5644L49.5884 61.512C50.3884 60.824 51.3004 60.288 52.3244 59.904C53.3484 59.52 54.4284 59.328 55.5644 59.328C56.4284 59.328 57.3084 59.456 58.2044 59.712L55.3724 67.008C54.8124 66.752 54.2364 66.624 53.6444 66.624C52.8924 66.624 52.2044 66.808 51.5804 67.176C50.9724 67.528 50.4844 68.016 50.1164 68.64C49.7644 69.248 49.5884 69.928 49.5884 70.68V84H42.3884ZM76.9413 48H84.1413V84H76.9413V81.792C76.2053 82.624 75.3253 83.304 74.3013 83.832C73.2933 84.36 72.1413 84.624 70.8453 84.624C69.1013 84.624 67.4693 84.296 65.9493 83.64C64.4293 82.984 63.0853 82.08 61.9173 80.928C60.7653 79.76 59.8613 78.416 59.2053 76.896C58.5493 75.376 58.2213 73.744 58.2213 72C58.2213 70.256 58.5493 68.624 59.2053 67.104C59.8613 65.584 60.7653 64.248 61.9173 63.096C63.0853 61.928 64.4293 61.016 65.9493 60.36C67.4693 59.704 69.1013 59.376 70.8453 59.376C72.1413 59.376 73.2933 59.64 74.3013 60.168C75.3253 60.68 76.2053 61.36 76.9413 62.208V48ZM70.9413 77.712C71.9333 77.712 72.8373 77.456 73.6533 76.944C74.4693 76.432 75.1173 75.744 75.5973 74.88C76.0773 74.016 76.3173 73.056 76.3173 72C76.3173 70.944 76.0773 69.984 75.5973 69.12C75.1173 68.256 74.4693 67.568 73.6533 67.056C72.8373 66.544 71.9333 66.288 70.9413 66.288C69.9493 66.288 69.0453 66.544 68.2293 67.056C67.4293 67.568 66.7893 68.256 66.3093 69.12C65.8453 69.984 65.6133 70.944 65.6133 72C65.6133 73.056 65.8533 74.016 66.3333 74.88C66.8133 75.744 67.4533 76.432 68.2533 76.944C69.0693 77.456 69.9653 77.712 70.9413 77.712Z" fill="#AB74FF"/>
</svg>
