<svg width="132" height="144" viewBox="0 0 132 144" fill="none" xmlns="http://www.w3.org/2000/svg">
<circle cx="66" cy="72" r="66" fill="#F5EFFF"/>
<circle cx="65.5" cy="72.5" r="54.5" fill="#EFE6FF"/>
<circle cx="66" cy="72" r="42" fill="#E6D8FF"/>
<path fill-rule="evenodd" clip-rule="evenodd" d="M111.839 22.3529L118.842 26.3961C118.48 28.2537 119.307 30.2169 121.038 31.2162C122.769 32.2155 124.883 31.9504 126.31 30.7074L128.65 32.0585L89.2636 100.278C89.2634 100.278 89.2633 100.278 89.2631 100.277C86.1964 98.5069 82.2751 99.5576 80.5045 102.624C78.734 105.691 79.7847 109.612 82.8514 111.383C82.8516 111.383 82.8517 111.383 82.8519 111.383L64.533 143.112L9.00607 111.054L27.325 79.3246C30.3915 81.0942 34.312 80.0434 36.0823 76.9771C37.8526 73.9108 36.8024 69.9901 33.7367 68.2192L73.123 0L75.429 1.33134C75.0662 3.18894 75.8935 5.15224 77.6244 6.15156C79.3552 7.15088 81.4692 6.88572 82.8965 5.6427L89.9006 9.6865C89.5378 11.5441 90.3651 13.5073 92.096 14.5066C93.8268 15.5059 95.9406 15.2407 97.368 13.9978L104.372 18.0417C104.009 19.8992 104.837 21.8623 106.568 22.8616C108.298 23.8608 110.412 23.5958 111.839 22.3529Z" fill="#AB74FF"/>
<path fill-rule="evenodd" clip-rule="evenodd" d="M27.325 79.3246L9.00607 111.054L64.4317 143.054L82.7511 111.324C79.762 109.526 78.7534 105.657 80.5045 102.624C80.7069 102.274 80.9373 101.95 81.1913 101.653L36.58 75.8967C36.4501 76.265 36.2847 76.6266 36.0823 76.9771C34.312 80.0433 30.3915 81.0942 27.325 79.3246Z" fill="#9C62F3"/>
<path d="M36.7522 75.9961L80.9195 101.496" stroke="#E6D8FF" stroke-linecap="round" stroke-linejoin="round" stroke-dasharray="4 4"/>
</svg>
