<svg width="135" height="132" viewBox="0 0 135 132" fill="none" xmlns="http://www.w3.org/2000/svg">
<circle cx="66" cy="66" r="66" fill="#F5EFFF"/>
<circle cx="65.5" cy="66.5" r="54.5" fill="#EFE6FF"/>
<circle cx="66" cy="66" r="42" fill="#E6D8FF"/>
<path fill-rule="evenodd" clip-rule="evenodd" d="M8.8939 60.0548C8.27794 59.8897 7.65012 60.0912 7.242 60.5255L14.4774 33.5227C15.7319 33.8589 17.0213 33.1144 17.3575 31.8599C17.6936 30.6054 16.9492 29.316 15.6947 28.9798L19.1725 16.0001L41.8871 22.0865L38.4092 35.0661C37.1549 34.7303 35.8659 35.4748 35.5298 36.7291C35.1937 37.9833 35.9379 39.2726 37.192 39.609L29.7144 67.5156L27.791 67.0003C27.8076 66.9547 27.8223 66.9081 27.8351 66.8604C28.074 65.9687 27.5448 65.0522 26.6532 64.8133C25.7615 64.5744 24.845 65.1035 24.6061 65.9952C24.5933 66.0429 24.5828 66.0906 24.5743 66.1383L21.8711 65.414C21.8877 65.3685 21.9024 65.3219 21.9151 65.2742C22.1541 64.3826 21.6249 63.4661 20.7333 63.2271C19.8416 62.9882 18.9251 63.5174 18.6862 64.409C18.6734 64.4567 18.6628 64.5044 18.6544 64.5521L15.9512 63.8278C15.9677 63.7823 15.9824 63.7357 15.9952 63.688C16.2341 62.7964 15.705 61.8799 14.8133 61.641C13.9217 61.402 13.0052 61.9312 12.7663 62.8228C12.7535 62.8705 12.7429 62.9182 12.7345 62.9659L10.0318 62.2417C10.0483 62.1961 10.063 62.1495 10.0758 62.1018C10.3147 61.2102 9.78555 60.2937 8.8939 60.0548Z" fill="#AB74FF"/>
<path fill-rule="evenodd" clip-rule="evenodd" d="M57.9132 38.9373C69.1724 39.4491 72.3071 48.0001 72.467 52.2117C72.8311 54.3389 74.5685 55.2333 75.7024 55.495C75.9936 55.5623 76.2794 55.5561 76.5747 55.5098C86.7204 53.9184 111.928 38.8674 128.086 28.4447C130.899 26.6306 134.485 28.8217 133.697 32.0743C131.88 39.5712 128.531 45.9892 124.416 51.3949C126.897 49.7202 129.294 47.9256 131.569 46.0066C132.814 44.9561 134.747 45.6768 134.697 47.3053C134.598 50.561 133.733 52.7612 132.74 53.8941C132.619 54.0317 132.49 54.1733 132.358 54.3186C131.702 55.0402 130.963 55.8534 130.709 56.7264C129.506 60.8712 125.782 63.0533 123.048 63.9369C122.177 64.2183 121.512 64.9647 121.341 65.8637C120.294 71.3543 116.099 73.2645 113.165 73.6549C112.358 73.7622 111.624 74.2279 111.231 74.9397C111.016 75.3272 110.79 75.6922 110.553 76.0358C107.02 81.1684 100.519 80.6132 94.2225 78.7362C95.6543 92.5713 88.1476 113.591 82.5816 125.944C81.6364 128.041 79.0943 128.826 77.0904 127.696L56.2114 115.924C53.6562 114.483 53.4694 110.874 55.8622 109.177L71.0024 98.4411C73.6096 96.5923 73.1663 92.3199 70.7848 90.1881C63.2309 83.4263 59.534 71.5214 58.2675 63.8845C58.0101 62.3322 56.9201 61.06 55.5549 60.2776C52.2166 58.3643 50.0556 55.1748 48.9185 52.7393C48.3592 51.5414 47.4049 50.5289 46.147 50.1221L5.13574 36.8582L45.6243 43.9324C47.1673 44.202 48.6871 43.5008 49.8121 42.4108C52.7252 39.5884 56.27 38.8929 57.9132 38.9373ZM57.5 47.0009C58.3284 47.0009 59 46.3293 59 45.5009C59 44.6724 58.3284 44.0009 57.5 44.0009C56.6716 44.0009 56 44.6724 56 45.5009C56 46.3293 56.6716 47.0009 57.5 47.0009Z" fill="#191926"/>
</svg>
