<svg width="132" height="132" viewBox="0 0 132 132" fill="none" xmlns="http://www.w3.org/2000/svg">
<circle cx="66" cy="66" r="66" fill="#F5EFFF"/>
<rect x="29" y="20" width="62" height="91" rx="2" fill="#191926"/>
<path d="M73.2745 26.5501L28.2745 20.3151C27.0723 20.1486 26 21.0825 26 22.2962V110.038C26 111.046 26.7494 111.896 27.749 112.022L72.749 117.715C73.9437 117.866 75 116.935 75 115.731V28.5312C75 27.5326 74.2635 26.6871 73.2745 26.5501Z" fill="#AB74FF" stroke="#F5EFFF" stroke-width="2"/>
<rect x="65" y="66" width="4" height="8" rx="2" fill="#F5EFFF"/>
<path fill-rule="evenodd" clip-rule="evenodd" d="M97.1513 61.1721L86.4413 68.3861C85.8528 68.7824 85.8528 69.6485 86.4413 70.0449L97.1513 77.2589C97.8155 77.7063 98.71 77.2303 98.71 76.4295L98.71 72.7155L110.71 72.7155C112.643 72.7155 114.21 71.1485 114.21 69.2155C114.21 67.2825 112.643 65.7155 110.71 65.7155L98.71 65.7155L98.71 62.0015C98.71 61.2006 97.8155 60.7247 97.1513 61.1721Z" fill="#AB74FF"/>
</svg>
