<svg width="132" height="159" viewBox="0 0 132 159" fill="none" xmlns="http://www.w3.org/2000/svg">
<circle cx="66" cy="79" r="66" fill="#F5EFFF"/>
<circle cx="65.5" cy="79.5" r="54.5" fill="#EFE6FF"/>
<circle cx="66" cy="79" r="42" fill="#E6D8FF"/>
<circle cx="85.5638" cy="36.5969" r="27.7091" transform="rotate(24.0535 85.5638 36.5969)" fill="#AB74FF"/>
<path fill-rule="evenodd" clip-rule="evenodd" d="M97.5739 11.6343C105.537 19.5142 108.221 31.7982 103.385 42.6332C97.1477 56.6076 80.7627 62.8797 66.7882 56.6423C66.468 56.4993 66.1517 56.351 65.8396 56.1976C68.1471 58.4808 70.8979 60.3943 74.0374 61.7956C88.0119 68.0331 104.397 61.761 110.634 47.7866C116.729 34.1324 110.881 18.1768 97.5739 11.6343Z" fill="#9C62F3"/>
<path d="M58.8638 54.7502C59.2739 53.6789 60.4992 53.1714 61.5467 53.6389L88.8946 65.8455C89.9499 66.3166 90.3875 67.5815 89.8489 68.604L47.1118 149.738C46.6205 150.671 45.4897 151.062 44.5271 150.632L27.1517 142.877C26.1814 142.444 25.7192 141.328 26.099 140.335L58.8638 54.7502Z" fill="#AB74FF"/>
<mask id="path-7-inside-1_343_33840" fill="white">
<path d="M57.8605 45.1447C58.3107 44.136 59.4933 43.6833 60.502 44.1335L96.6881 60.2851C97.6968 60.7353 98.1495 61.918 97.6993 62.9266L93.5625 72.1946C93.1123 73.2033 91.9297 73.656 90.921 73.2058L54.7349 57.0542C53.7262 56.604 53.2735 55.4214 53.7237 54.4127L57.8605 45.1447Z"/>
</mask>
<path d="M57.8605 45.1447C58.3107 44.136 59.4933 43.6833 60.502 44.1335L96.6881 60.2851C97.6968 60.7353 98.1495 61.918 97.6993 62.9266L93.5625 72.1946C93.1123 73.2033 91.9297 73.656 90.921 73.2058L54.7349 57.0542C53.7262 56.604 53.2735 55.4214 53.7237 54.4127L57.8605 45.1447Z" fill="#9C62F3"/>
<path d="M57.8605 45.1447C58.7609 43.1274 61.1262 42.222 63.1435 43.1224L95.677 57.6436C97.6943 58.544 98.5997 60.9093 97.6993 62.9266C97.6993 62.9266 96.8816 62.5616 95.8729 62.1114L59.6868 45.9599C58.6782 45.5097 57.8605 45.1447 57.8605 45.1447ZM92.7473 74.021L52.9085 56.239L92.7473 74.021ZM52.9085 56.239L58.6757 43.3184L52.9085 56.239ZM98.5144 61.1003L92.7473 74.021L98.5144 61.1003Z" fill="#F5EFFF" mask="url(#path-7-inside-1_343_33840)"/>
</svg>
