<svg width="390" height="365" viewBox="0 0 390 365" fill="none" xmlns="http://www.w3.org/2000/svg">
<path fill-rule="evenodd" clip-rule="evenodd" d="M381.3 172.497L392.421 178.917C391.844 181.867 393.158 184.985 395.907 186.572C398.655 188.159 402.013 187.738 404.279 185.764L407.996 187.909L345.45 296.243C345.449 296.243 345.449 296.242 345.448 296.242C340.578 293.43 334.351 295.099 331.539 299.969C328.728 304.839 330.396 311.066 335.266 313.878C335.267 313.878 335.267 313.878 335.268 313.878L306.177 364.264L218 313.355L247.09 262.969C251.96 265.779 258.185 264.11 260.996 259.241C263.807 254.372 262.14 248.146 257.272 245.334L319.818 137L323.479 139.114C322.903 142.064 324.216 145.182 326.965 146.769C329.714 148.356 333.071 147.935 335.338 145.96L346.461 152.382C345.884 155.332 347.198 158.45 349.947 160.037C352.696 161.624 356.053 161.202 358.319 159.228L369.442 165.65C368.866 168.6 370.179 171.718 372.928 173.305C375.677 174.891 379.034 174.47 381.3 172.497Z" fill="#AB74FF"/>
<path fill-rule="evenodd" clip-rule="evenodd" d="M306.016 364.171L218 313.355L247.091 262.969C251.96 265.779 258.186 264.11 260.997 259.241C261.318 258.684 261.581 258.11 261.787 257.525L332.631 298.427C332.227 298.898 331.861 299.413 331.54 299.969C328.759 304.786 330.361 310.93 335.108 313.784L306.016 364.171Z" fill="#9C62F3"/>
<path d="M262.061 257.683L332.199 298.177" stroke="#191926" stroke-width="3" stroke-linecap="square" stroke-linejoin="round" stroke-dasharray="6.35 6.35"/>
<circle cx="272.167" cy="116.5" r="78.5" fill="#F5EFFF"/>
<path d="M269.177 49.9619C255.719 56.1921 228.805 78.521 228.805 117.995C228.307 132.698 236.132 166.441 271.419 183.786" stroke="#AB74FF" stroke-width="3"/>
<path d="M272.167 48.4668C256.467 68.6525 234.487 124.275 272.167 185.281" stroke="#AB74FF" stroke-width="3"/>
<path d="M275.906 49.9619C289.363 56.1921 316.277 78.521 316.277 117.995C316.775 132.698 308.95 166.441 273.663 183.786" stroke="#AB74FF" stroke-width="3"/>
<path d="M272.915 48.4668C288.615 68.6525 310.595 124.275 272.915 185.281" stroke="#AB74FF" stroke-width="3"/>
<path d="M233.291 61.9238C246.001 70.6461 279.643 82.8572 312.539 61.9238" stroke="#AB74FF" stroke-width="3"/>
<path d="M311.043 172.255C298.333 163.533 264.691 151.322 231.795 172.255" stroke="#AB74FF" stroke-width="3"/>
<path d="M211.609 85.8477C228.805 94.0715 277.101 105.585 332.724 85.8477" stroke="#AB74FF" stroke-width="3"/>
<path d="M332.725 148.332C315.529 140.108 267.233 128.594 211.61 148.332" stroke="#AB74FF" stroke-width="3"/>
<circle cx="272.167" cy="117.248" r="68.0333" stroke="#AB74FF" stroke-width="3"/>
<path d="M204.881 117.248H340.2" stroke="#AB74FF" stroke-width="3"/>
<path d="M272.541 49.5884L272.541 184.907" stroke="#AB74FF" stroke-width="3"/>
<path d="M175.936 0H219.771C234.178 0 245.857 11.6792 245.857 26.0862C245.857 40.4932 234.178 52.1723 219.771 52.1723H175.936V0Z" fill="#AB74FF"/>
<path d="M175.936 47.3315H224.343C238.898 47.3315 250.698 59.1311 250.698 73.6866C250.698 88.2422 238.898 100.042 224.343 100.042H175.936V47.3315Z" fill="#AB74FF"/>
<path fill-rule="evenodd" clip-rule="evenodd" d="M72.667 0H101.711C101.711 4.15869 105.083 7.52996 109.241 7.52996C113.4 7.52996 116.771 4.15869 116.771 0H169.482V100.042L116.771 100.042C116.771 95.883 113.4 92.5117 109.241 92.5117C105.083 92.5117 101.711 95.883 101.711 100.042L72.667 100.042V0Z" fill="#AB74FF"/>
<path fill-rule="evenodd" clip-rule="evenodd" d="M145.444 199.277C126.266 198.107 119.405 212.034 118.372 219.144C117.314 222.88 113.912 224.012 111.977 224.155C111.679 224.177 111.402 224.143 111.112 224.07C93.3571 219.556 49.0321 185.703 23.8639 165.109C21.2737 162.99 17.4387 164.791 17.6568 168.131C18.6658 183.584 23.5932 197.006 30.4624 208.358C25.8559 204.476 21.4765 200.332 17.4349 195.926C16.3337 194.725 14.3315 195.228 14.0881 196.839C12.8502 205.034 14.6509 210.24 16.8177 212.122C17.6422 212.838 18.5464 213.792 18.6457 214.879C19.4359 223.538 26.7219 228.432 31.523 230.285C32.3768 230.615 32.965 231.431 32.9945 232.346C33.3473 243.275 41.3324 247.397 46.4342 248.324C47.2344 248.469 47.9169 249.014 48.2025 249.775C49.843 254.149 52.427 257.192 55.2332 259.263C61.2748 263.721 69.2203 262.465 76.612 260.564C71.6525 284.819 81.5458 323.787 88.8335 345.134C89.5768 347.311 92.0177 348.352 94.1303 347.441L138.478 328.322C141.171 327.161 141.74 323.592 139.541 321.65L108.535 294.282C106.139 292.167 107.049 288.092 109.876 286.602C127.328 277.402 137.273 253.571 140.798 239.736C141.186 238.212 142.395 237.052 143.883 236.54C151.511 233.92 156.588 227.383 158.928 223.009C159.552 221.843 160.613 220.942 161.907 220.671L235.281 205.305L163.562 210.089C161.999 210.193 160.546 209.355 159.648 208.071C155.149 201.643 148.476 199.518 145.444 199.277ZM144.685 213.02C143.281 212.87 142.264 211.61 142.414 210.206C142.564 208.802 143.824 207.785 145.228 207.935C146.632 208.085 147.649 209.345 147.499 210.749C147.349 212.153 146.089 213.17 144.685 213.02Z" fill="#F5EFFF"/>
<circle cx="53" cy="31" r="11" fill="#F5EFFF"/>
<circle cx="341" cy="46" r="11" fill="#AB74FF"/>
<circle cx="234" cy="287" r="11" fill="#F5EFFF"/>
<circle cx="53" cy="283" r="11" fill="#AB74FF"/>
<path d="M52.235 36.1V28.95H51L51.52 27H54.185V36.1H52.235Z" fill="#AB74FF"/>
<path d="M338 50.269V48.527C338.243 48.3753 338.546 48.1652 338.91 47.8965C339.274 47.6235 339.655 47.318 340.054 46.98C340.457 46.642 340.832 46.2997 341.179 45.953C341.53 45.602 341.816 45.2705 342.037 44.9585C342.258 44.6422 342.368 44.3757 342.368 44.159C342.368 43.938 342.314 43.7365 342.206 43.5545C342.097 43.3682 341.952 43.2208 341.77 43.1125C341.592 43.0042 341.393 42.95 341.172 42.95C340.951 42.95 340.75 43.0042 340.568 43.1125C340.386 43.2208 340.238 43.3682 340.125 43.5545C340.017 43.7365 339.963 43.938 339.963 44.159H338.013C338.013 43.561 338.158 43.0237 338.448 42.547C338.739 42.0703 339.122 41.6933 339.599 41.416C340.08 41.1387 340.604 41 341.172 41C341.748 41 342.275 41.1408 342.752 41.4225C343.228 41.7042 343.607 42.0855 343.889 42.5665C344.175 43.0432 344.318 43.574 344.318 44.159C344.318 44.4493 344.279 44.7267 344.201 44.991C344.123 45.251 344.008 45.5088 343.857 45.7645C343.709 46.0158 343.525 46.2737 343.304 46.538C343.083 46.8023 342.827 47.0818 342.537 47.3765C342.251 47.6668 341.935 47.981 341.588 48.319H344.318V50.269H338Z" fill="#F5EFFF"/>
<path d="M234.003 291.451C233.457 291.451 232.957 291.317 232.502 291.048C232.046 290.779 231.683 290.418 231.41 289.963C231.137 289.508 231 289.003 231 288.448H232.95C232.95 288.639 232.998 288.814 233.093 288.975C233.188 289.135 233.316 289.263 233.477 289.358C233.637 289.453 233.812 289.501 234.003 289.501C234.194 289.501 234.369 289.453 234.53 289.358C234.69 289.263 234.818 289.135 234.913 288.975C235.008 288.814 235.056 288.639 235.056 288.448C235.056 288.184 234.982 287.965 234.835 287.792C234.688 287.614 234.48 287.482 234.211 287.395C233.947 287.308 233.635 287.265 233.275 287.265V285.783C233.752 285.783 234.127 285.703 234.399 285.543C234.672 285.378 234.809 285.133 234.809 284.808C234.809 284.652 234.77 284.509 234.692 284.379C234.618 284.249 234.516 284.145 234.387 284.067C234.261 283.989 234.12 283.95 233.964 283.95C233.804 283.95 233.646 283.989 233.49 284.067C233.333 284.145 233.203 284.249 233.099 284.379C233 284.509 232.95 284.652 232.95 284.808H231C231 284.422 231.078 284.061 231.234 283.722C231.394 283.38 231.611 283.081 231.884 282.825C232.161 282.566 232.476 282.364 232.827 282.221C233.182 282.074 233.552 282 233.938 282C234.445 282 234.913 282.126 235.342 282.377C235.771 282.628 236.113 282.966 236.369 283.391C236.629 283.816 236.759 284.288 236.759 284.808C236.759 285.111 236.694 285.426 236.564 285.751C236.434 286.076 236.239 286.307 235.979 286.446C236.204 286.533 236.393 286.687 236.545 286.908C236.696 287.124 236.811 287.371 236.889 287.649C236.967 287.922 237.006 288.188 237.006 288.448C237.006 288.998 236.87 289.501 236.597 289.956C236.328 290.411 235.966 290.775 235.511 291.048C235.056 291.317 234.553 291.451 234.003 291.451Z" fill="#9C62F3"/>
<path d="M52.848 287.1V285.085H49V283.135L52.406 278H54.798V283.135H55.461V285.085H54.798V287.1H52.848ZM51.249 283.135H52.848V280.626L51.249 283.135Z" fill="#F5EFFF"/>
</svg>
