<svg width="40" height="40" viewBox="0 0 40 40" fill="none" xmlns="http://www.w3.org/2000/svg">
<g clip-path="url(#clip0_343_34534)">
<path d="M38 0H2C0.89543 0 0 0.89543 0 2V38C0 39.1046 0.89543 40 2 40H38C39.1046 40 40 39.1046 40 38V2C40 0.89543 39.1046 0 38 0Z" fill="#EEEEEE"/>
<path fill-rule="evenodd" clip-rule="evenodd" d="M28.64 20.1999C28.64 19.5599 28.58 18.9499 28.48 18.3599H20V21.8399H24.84C24.63 22.9599 24 23.9199 23.04 24.5599V26.8199H25.95C27.65 25.2499 28.63 22.9499 28.63 20.1999H28.64Z" fill="#4285F4"/>
<path fill-rule="evenodd" clip-rule="evenodd" d="M20 29C22.43 29 24.47 28.19 25.96 26.82L23.05 24.56C22.24 25.1 21.21 25.42 20 25.42C17.66 25.42 15.67 23.84 14.96 21.71H11.95V24.04C13.43 26.98 16.47 29 19.99 29H20Z" fill="#34A853"/>
<path fill-rule="evenodd" clip-rule="evenodd" d="M14.96 21.71C14.78 21.17 14.68 20.59 14.68 20C14.68 19.41 14.78 18.83 14.96 18.29V15.96H11.95C11.34 17.18 10.99 18.55 10.99 20C10.99 21.45 11.34 22.83 11.95 24.04L14.96 21.71Z" fill="#FBBC05"/>
<path fill-rule="evenodd" clip-rule="evenodd" d="M20 14.5798C21.32 14.5798 22.51 15.0298 23.44 15.9298L26.02 13.3498C24.46 11.8998 22.42 11.0098 20 11.0098C16.48 11.0098 13.44 13.0298 11.96 15.9698L14.97 18.2998C15.68 16.1698 17.66 14.5898 20.01 14.5898L20 14.5798Z" fill="#EA4335"/>
</g>
<defs>
<clipPath id="clip0_343_34534">
<rect width="40" height="40" fill="white"/>
</clipPath>
</defs>
</svg>
