<svg width="40" height="40" viewBox="0 0 40 40" fill="none" xmlns="http://www.w3.org/2000/svg">
<g clip-path="url(#clip0_343_34548)">
<path d="M36 0H4C1.79086 0 0 1.79086 0 4V36C0 38.2091 1.79086 40 4 40H36C38.2091 40 40 38.2091 40 36V4C40 1.79086 38.2091 0 36 0Z" fill="#FBE300"/>
<path fill-rule="evenodd" clip-rule="evenodd" d="M20.5 10.8624C15.253 10.8624 11 14.1759 11 18.2625C11 20.8041 12.645 23.0446 15.15 24.3772L14.096 28.2597C14.0029 28.6028 14.392 28.8762 14.6907 28.6774L19.3108 25.6026C19.7007 25.6406 20.0969 25.6627 20.5 25.6627C25.7466 25.6627 29.9999 22.3494 29.9999 18.2625C29.9999 14.1759 25.7466 10.8624 20.5 10.8624" fill="black"/>
</g>
<defs>
<clipPath id="clip0_343_34548">
<rect width="40" height="40" fill="white"/>
</clipPath>
</defs>
</svg>
