<svg width="24" height="24" viewBox="0 0 24 24" fill="none" xmlns="http://www.w3.org/2000/svg">
<path d="M8.56569 4.43431C8.25327 4.1219 7.74673 4.1219 7.43431 4.43431L2.34315 9.52548C2.03073 9.8379 2.03073 10.3444 2.34315 10.6569C2.65557 10.9693 3.1621 10.9693 3.47452 10.6569L8 6.13137L12.5255 10.6569C12.8379 10.9693 13.3444 10.9693 13.6569 10.6569C13.9693 10.3444 13.9693 9.8379 13.6569 9.52548L8.56569 4.43431ZM7.2 21C7.2 21.4418 7.55817 21.8 8 21.8C8.44183 21.8 8.8 21.4418 8.8 21H7.2ZM7.2 5V21H8.8V5H7.2Z" fill="#191926"/>
<path d="M8.56569 4.43431C8.25327 4.1219 7.74673 4.1219 7.43431 4.43431L2.34315 9.52548C2.03073 9.8379 2.03073 10.3444 2.34315 10.6569C2.65557 10.9693 3.1621 10.9693 3.47452 10.6569L8 6.13137L12.5255 10.6569C12.8379 10.9693 13.3444 10.9693 13.6569 10.6569C13.9693 10.3444 13.9693 9.8379 13.6569 9.52548L8.56569 4.43431ZM7.2 21C7.2 21.4418 7.55817 21.8 8 21.8C8.44183 21.8 8.8 21.4418 8.8 21H7.2ZM7.2 5V21H8.8V5H7.2Z" fill="black" fill-opacity="0.2"/>
<path d="M8.56569 4.43431C8.25327 4.1219 7.74673 4.1219 7.43431 4.43431L2.34315 9.52548C2.03073 9.8379 2.03073 10.3444 2.34315 10.6569C2.65557 10.9693 3.1621 10.9693 3.47452 10.6569L8 6.13137L12.5255 10.6569C12.8379 10.9693 13.3444 10.9693 13.6569 10.6569C13.9693 10.3444 13.9693 9.8379 13.6569 9.52548L8.56569 4.43431ZM7.2 21C7.2 21.4418 7.55817 21.8 8 21.8C8.44183 21.8 8.8 21.4418 8.8 21H7.2ZM7.2 5V21H8.8V5H7.2Z" fill="black" fill-opacity="0.2"/>
<path d="M8.56569 4.43431C8.25327 4.1219 7.74673 4.1219 7.43431 4.43431L2.34315 9.52548C2.03073 9.8379 2.03073 10.3444 2.34315 10.6569C2.65557 10.9693 3.1621 10.9693 3.47452 10.6569L8 6.13137L12.5255 10.6569C12.8379 10.9693 13.3444 10.9693 13.6569 10.6569C13.9693 10.3444 13.9693 9.8379 13.6569 9.52548L8.56569 4.43431ZM7.2 21C7.2 21.4418 7.55817 21.8 8 21.8C8.44183 21.8 8.8 21.4418 8.8 21H7.2ZM7.2 5V21H8.8V5H7.2Z" fill="black" fill-opacity="0.2"/>
<path d="M15.4343 19.5657C15.7467 19.8781 16.2533 19.8781 16.5657 19.5657L21.6569 14.4745C21.9693 14.1621 21.9693 13.6556 21.6569 13.3431C21.3444 13.0307 20.8379 13.0307 20.5255 13.3431L16 17.8686L11.4745 13.3431C11.1621 13.0307 10.6556 13.0307 10.3431 13.3431C10.0307 13.6556 10.0307 14.1621 10.3431 14.4745L15.4343 19.5657ZM16.8 3C16.8 2.55817 16.4418 2.2 16 2.2C15.5582 2.2 15.2 2.55817 15.2 3L16.8 3ZM16.8 19L16.8 3L15.2 3L15.2 19L16.8 19Z" fill="#191926"/>
<path d="M15.4343 19.5657C15.7467 19.8781 16.2533 19.8781 16.5657 19.5657L21.6569 14.4745C21.9693 14.1621 21.9693 13.6556 21.6569 13.3431C21.3444 13.0307 20.8379 13.0307 20.5255 13.3431L16 17.8686L11.4745 13.3431C11.1621 13.0307 10.6556 13.0307 10.3431 13.3431C10.0307 13.6556 10.0307 14.1621 10.3431 14.4745L15.4343 19.5657ZM16.8 3C16.8 2.55817 16.4418 2.2 16 2.2C15.5582 2.2 15.2 2.55817 15.2 3L16.8 3ZM16.8 19L16.8 3L15.2 3L15.2 19L16.8 19Z" fill="black" fill-opacity="0.2"/>
<path d="M15.4343 19.5657C15.7467 19.8781 16.2533 19.8781 16.5657 19.5657L21.6569 14.4745C21.9693 14.1621 21.9693 13.6556 21.6569 13.3431C21.3444 13.0307 20.8379 13.0307 20.5255 13.3431L16 17.8686L11.4745 13.3431C11.1621 13.0307 10.6556 13.0307 10.3431 13.3431C10.0307 13.6556 10.0307 14.1621 10.3431 14.4745L15.4343 19.5657ZM16.8 3C16.8 2.55817 16.4418 2.2 16 2.2C15.5582 2.2 15.2 2.55817 15.2 3L16.8 3ZM16.8 19L16.8 3L15.2 3L15.2 19L16.8 19Z" fill="black" fill-opacity="0.2"/>
<path d="M15.4343 19.5657C15.7467 19.8781 16.2533 19.8781 16.5657 19.5657L21.6569 14.4745C21.9693 14.1621 21.9693 13.6556 21.6569 13.3431C21.3444 13.0307 20.8379 13.0307 20.5255 13.3431L16 17.8686L11.4745 13.3431C11.1621 13.0307 10.6556 13.0307 10.3431 13.3431C10.0307 13.6556 10.0307 14.1621 10.3431 14.4745L15.4343 19.5657ZM16.8 3C16.8 2.55817 16.4418 2.2 16 2.2C15.5582 2.2 15.2 2.55817 15.2 3L16.8 3ZM16.8 19L16.8 3L15.2 3L15.2 19L16.8 19Z" fill="black" fill-opacity="0.2"/>
</svg>
