<svg width="24" height="24" viewBox="0 0 24 24" fill="none" xmlns="http://www.w3.org/2000/svg">
<path d="M6 14.111L6.18885 14.8884L6.8 14.7399V14.111H6ZM5.17082 14.4146L5.52859 15.1301L5.52859 15.1301L5.17082 14.4146ZM4.19574 14.9021L3.83797 14.1866L3.83797 14.1866L4.19574 14.9021ZM18 14.111H17.2V14.7399L17.8111 14.8884L18 14.111ZM6.8 9C6.8 6.12812 9.12812 3.8 12 3.8V2.2C8.24446 2.2 5.2 5.24446 5.2 9H6.8ZM6.8 14.111V9H5.2V14.111H6.8ZM5.81115 13.3336C5.46692 13.4172 5.13202 13.5396 4.81305 13.699L5.52859 15.1301C5.7396 15.0246 5.96114 14.9437 6.18885 14.8884L5.81115 13.3336ZM4.81305 13.699L3.83797 14.1866L4.55351 15.6177L5.52859 15.1301L4.81305 13.699ZM3.83797 14.1866C2.83411 14.6885 2.2 15.7145 2.2 16.8369H3.8C3.8 16.3206 4.09171 15.8486 4.55351 15.6177L3.83797 14.1866ZM2.2 16.8369C2.2 18.4734 3.52663 19.8 5.16312 19.8V18.2C4.41029 18.2 3.8 17.5897 3.8 16.8369H2.2ZM5.16312 19.8H18.8369V18.2H5.16312V19.8ZM18.8369 19.8C20.4734 19.8 21.8 18.4734 21.8 16.8369H20.2C20.2 17.5897 19.5897 18.2 18.8369 18.2V19.8ZM21.8 16.8369C21.8 15.7145 21.1659 14.6885 20.162 14.1866L19.4465 15.6177C19.9083 15.8486 20.2 16.3206 20.2 16.8369H21.8ZM20.162 14.1866L19.187 13.6991L18.4714 15.1301L19.4465 15.6177L20.162 14.1866ZM19.187 13.6991C18.868 13.5396 18.5331 13.4172 18.1889 13.3336L17.8111 14.8884C18.0389 14.9437 18.2604 15.0246 18.4714 15.1301L19.187 13.6991ZM17.2 9V14.111H18.8V9H17.2ZM12 3.8C14.8719 3.8 17.2 6.12812 17.2 9H18.8C18.8 5.24446 15.7555 2.2 12 2.2V3.8Z" fill="#191926"/>
<path d="M6 14.111L6.18885 14.8884L6.8 14.7399V14.111H6ZM5.17082 14.4146L5.52859 15.1301L5.52859 15.1301L5.17082 14.4146ZM4.19574 14.9021L3.83797 14.1866L3.83797 14.1866L4.19574 14.9021ZM18 14.111H17.2V14.7399L17.8111 14.8884L18 14.111ZM6.8 9C6.8 6.12812 9.12812 3.8 12 3.8V2.2C8.24446 2.2 5.2 5.24446 5.2 9H6.8ZM6.8 14.111V9H5.2V14.111H6.8ZM5.81115 13.3336C5.46692 13.4172 5.13202 13.5396 4.81305 13.699L5.52859 15.1301C5.7396 15.0246 5.96114 14.9437 6.18885 14.8884L5.81115 13.3336ZM4.81305 13.699L3.83797 14.1866L4.55351 15.6177L5.52859 15.1301L4.81305 13.699ZM3.83797 14.1866C2.83411 14.6885 2.2 15.7145 2.2 16.8369H3.8C3.8 16.3206 4.09171 15.8486 4.55351 15.6177L3.83797 14.1866ZM2.2 16.8369C2.2 18.4734 3.52663 19.8 5.16312 19.8V18.2C4.41029 18.2 3.8 17.5897 3.8 16.8369H2.2ZM5.16312 19.8H18.8369V18.2H5.16312V19.8ZM18.8369 19.8C20.4734 19.8 21.8 18.4734 21.8 16.8369H20.2C20.2 17.5897 19.5897 18.2 18.8369 18.2V19.8ZM21.8 16.8369C21.8 15.7145 21.1659 14.6885 20.162 14.1866L19.4465 15.6177C19.9083 15.8486 20.2 16.3206 20.2 16.8369H21.8ZM20.162 14.1866L19.187 13.6991L18.4714 15.1301L19.4465 15.6177L20.162 14.1866ZM19.187 13.6991C18.868 13.5396 18.5331 13.4172 18.1889 13.3336L17.8111 14.8884C18.0389 14.9437 18.2604 15.0246 18.4714 15.1301L19.187 13.6991ZM17.2 9V14.111H18.8V9H17.2ZM12 3.8C14.8719 3.8 17.2 6.12812 17.2 9H18.8C18.8 5.24446 15.7555 2.2 12 2.2V3.8Z" fill="black" fill-opacity="0.2"/>
<path d="M6 14.111L6.18885 14.8884L6.8 14.7399V14.111H6ZM5.17082 14.4146L5.52859 15.1301L5.52859 15.1301L5.17082 14.4146ZM4.19574 14.9021L3.83797 14.1866L3.83797 14.1866L4.19574 14.9021ZM18 14.111H17.2V14.7399L17.8111 14.8884L18 14.111ZM6.8 9C6.8 6.12812 9.12812 3.8 12 3.8V2.2C8.24446 2.2 5.2 5.24446 5.2 9H6.8ZM6.8 14.111V9H5.2V14.111H6.8ZM5.81115 13.3336C5.46692 13.4172 5.13202 13.5396 4.81305 13.699L5.52859 15.1301C5.7396 15.0246 5.96114 14.9437 6.18885 14.8884L5.81115 13.3336ZM4.81305 13.699L3.83797 14.1866L4.55351 15.6177L5.52859 15.1301L4.81305 13.699ZM3.83797 14.1866C2.83411 14.6885 2.2 15.7145 2.2 16.8369H3.8C3.8 16.3206 4.09171 15.8486 4.55351 15.6177L3.83797 14.1866ZM2.2 16.8369C2.2 18.4734 3.52663 19.8 5.16312 19.8V18.2C4.41029 18.2 3.8 17.5897 3.8 16.8369H2.2ZM5.16312 19.8H18.8369V18.2H5.16312V19.8ZM18.8369 19.8C20.4734 19.8 21.8 18.4734 21.8 16.8369H20.2C20.2 17.5897 19.5897 18.2 18.8369 18.2V19.8ZM21.8 16.8369C21.8 15.7145 21.1659 14.6885 20.162 14.1866L19.4465 15.6177C19.9083 15.8486 20.2 16.3206 20.2 16.8369H21.8ZM20.162 14.1866L19.187 13.6991L18.4714 15.1301L19.4465 15.6177L20.162 14.1866ZM19.187 13.6991C18.868 13.5396 18.5331 13.4172 18.1889 13.3336L17.8111 14.8884C18.0389 14.9437 18.2604 15.0246 18.4714 15.1301L19.187 13.6991ZM17.2 9V14.111H18.8V9H17.2ZM12 3.8C14.8719 3.8 17.2 6.12812 17.2 9H18.8C18.8 5.24446 15.7555 2.2 12 2.2V3.8Z" fill="black" fill-opacity="0.2"/>
<path d="M6 14.111L6.18885 14.8884L6.8 14.7399V14.111H6ZM5.17082 14.4146L5.52859 15.1301L5.52859 15.1301L5.17082 14.4146ZM4.19574 14.9021L3.83797 14.1866L3.83797 14.1866L4.19574 14.9021ZM18 14.111H17.2V14.7399L17.8111 14.8884L18 14.111ZM6.8 9C6.8 6.12812 9.12812 3.8 12 3.8V2.2C8.24446 2.2 5.2 5.24446 5.2 9H6.8ZM6.8 14.111V9H5.2V14.111H6.8ZM5.81115 13.3336C5.46692 13.4172 5.13202 13.5396 4.81305 13.699L5.52859 15.1301C5.7396 15.0246 5.96114 14.9437 6.18885 14.8884L5.81115 13.3336ZM4.81305 13.699L3.83797 14.1866L4.55351 15.6177L5.52859 15.1301L4.81305 13.699ZM3.83797 14.1866C2.83411 14.6885 2.2 15.7145 2.2 16.8369H3.8C3.8 16.3206 4.09171 15.8486 4.55351 15.6177L3.83797 14.1866ZM2.2 16.8369C2.2 18.4734 3.52663 19.8 5.16312 19.8V18.2C4.41029 18.2 3.8 17.5897 3.8 16.8369H2.2ZM5.16312 19.8H18.8369V18.2H5.16312V19.8ZM18.8369 19.8C20.4734 19.8 21.8 18.4734 21.8 16.8369H20.2C20.2 17.5897 19.5897 18.2 18.8369 18.2V19.8ZM21.8 16.8369C21.8 15.7145 21.1659 14.6885 20.162 14.1866L19.4465 15.6177C19.9083 15.8486 20.2 16.3206 20.2 16.8369H21.8ZM20.162 14.1866L19.187 13.6991L18.4714 15.1301L19.4465 15.6177L20.162 14.1866ZM19.187 13.6991C18.868 13.5396 18.5331 13.4172 18.1889 13.3336L17.8111 14.8884C18.0389 14.9437 18.2604 15.0246 18.4714 15.1301L19.187 13.6991ZM17.2 9V14.111H18.8V9H17.2ZM12 3.8C14.8719 3.8 17.2 6.12812 17.2 9H18.8C18.8 5.24446 15.7555 2.2 12 2.2V3.8Z" fill="black" fill-opacity="0.2"/>
<path d="M9 21.5H15" stroke="#191926" stroke-width="1.6" stroke-linecap="round"/>
<path d="M9 21.5H15" stroke="black" stroke-opacity="0.2" stroke-width="1.6" stroke-linecap="round"/>
<path d="M9 21.5H15" stroke="black" stroke-opacity="0.2" stroke-width="1.6" stroke-linecap="round"/>
<path d="M9 21.5H15" stroke="black" stroke-opacity="0.2" stroke-width="1.6" stroke-linecap="round"/>
</svg>
