<svg width="24" height="24" viewBox="0 0 24 24" fill="none" xmlns="http://www.w3.org/2000/svg">
<path d="M10.9468 19.3626L9.70147 14.7149L15.8877 4L21.7809 7.40242L15.5946 18.1173L10.9468 19.3626Z" stroke="#191926" stroke-width="1.6" stroke-linejoin="round"/>
<path d="M10.9468 19.3626L9.70147 14.7149L15.8877 4L21.7809 7.40242L15.5946 18.1173L10.9468 19.3626Z" stroke="black" stroke-opacity="0.2" stroke-width="1.6" stroke-linejoin="round"/>
<path d="M10.9468 19.3626L9.70147 14.7149L15.8877 4L21.7809 7.40242L15.5946 18.1173L10.9468 19.3626Z" stroke="black" stroke-opacity="0.2" stroke-width="1.6" stroke-linejoin="round"/>
<path d="M10.9468 19.3626L9.70147 14.7149L15.8877 4L21.7809 7.40242L15.5946 18.1173L10.9468 19.3626Z" stroke="black" stroke-opacity="0.2" stroke-width="1.6" stroke-linejoin="round"/>
<path d="M2 20H8" stroke="#191926" stroke-width="1.6" stroke-linecap="round" stroke-linejoin="round"/>
<path d="M2 20H8" stroke="black" stroke-opacity="0.2" stroke-width="1.6" stroke-linecap="round" stroke-linejoin="round"/>
<path d="M2 20H8" stroke="black" stroke-opacity="0.2" stroke-width="1.6" stroke-linecap="round" stroke-linejoin="round"/>
<path d="M2 20H8" stroke="black" stroke-opacity="0.2" stroke-width="1.6" stroke-linecap="round" stroke-linejoin="round"/>
</svg>
