<svg width="24" height="24" viewBox="0 0 24 24" fill="none" xmlns="http://www.w3.org/2000/svg">
<path d="M18 5L5 12L18 19" stroke="#191926" stroke-width="1.6" stroke-linecap="round" stroke-linejoin="round"/>
<path d="M18 5L5 12L18 19" stroke="black" stroke-opacity="0.2" stroke-width="1.6" stroke-linecap="round" stroke-linejoin="round"/>
<path d="M18 5L5 12L18 19" stroke="black" stroke-opacity="0.2" stroke-width="1.6" stroke-linecap="round" stroke-linejoin="round"/>
<path d="M18 5L5 12L18 19" stroke="black" stroke-opacity="0.2" stroke-width="1.6" stroke-linecap="round" stroke-linejoin="round"/>
<circle cx="18" cy="5" r="3" fill="#F5F7FA"/>
<circle cx="18" cy="5" r="3" stroke="#191926" stroke-width="1.6"/>
<circle cx="18" cy="5" r="3" stroke="black" stroke-opacity="0.2" stroke-width="1.6"/>
<circle cx="18" cy="5" r="3" stroke="black" stroke-opacity="0.2" stroke-width="1.6"/>
<circle cx="18" cy="5" r="3" stroke="black" stroke-opacity="0.2" stroke-width="1.6"/>
<circle cx="6" cy="12" r="3" fill="#F5F7FA"/>
<circle cx="6" cy="12" r="3" stroke="#191926" stroke-width="1.6"/>
<circle cx="6" cy="12" r="3" stroke="black" stroke-opacity="0.2" stroke-width="1.6"/>
<circle cx="6" cy="12" r="3" stroke="black" stroke-opacity="0.2" stroke-width="1.6"/>
<circle cx="6" cy="12" r="3" stroke="black" stroke-opacity="0.2" stroke-width="1.6"/>
<circle cx="18" cy="18" r="3" fill="#F5F7FA"/>
<circle cx="18" cy="18" r="3" stroke="#191926" stroke-width="1.6"/>
<circle cx="18" cy="18" r="3" stroke="black" stroke-opacity="0.2" stroke-width="1.6"/>
<circle cx="18" cy="18" r="3" stroke="black" stroke-opacity="0.2" stroke-width="1.6"/>
<circle cx="18" cy="18" r="3" stroke="black" stroke-opacity="0.2" stroke-width="1.6"/>
</svg>
