<svg width="132" height="132" viewBox="0 0 132 132" fill="none" xmlns="http://www.w3.org/2000/svg">
<circle cx="66" cy="66" r="66" fill="#F5EFFF"/>
<path d="M28 27C29.1819 27 30.3522 27.3006 31.4442 27.8847C32.5361 28.4688 33.5282 29.3249 34.364 30.4042C35.1997 31.4835 35.8626 32.7647 36.3149 34.1749C36.7672 35.585 37 37.0964 37 38.6227L37 103.377C37 107.067 38.8 114.557 46 115L92 115L92 27L28 27Z" fill="#AB74FF"/>
<path d="M19.6851 34.1749C19.4313 34.966 19.2467 35.789 19.1334 36.6286C18.9858 37.7233 19.8954 38.6227 21 38.6227L28 38.6227L37 38.6227C37 37.0964 36.7672 35.585 36.3149 34.1749C35.8626 32.7647 35.1997 31.4835 34.364 30.4042C33.5282 29.3249 32.5361 28.4688 31.4442 27.8847C30.3522 27.3006 29.1819 27 28 27C26.8181 27 25.6478 27.3006 24.5558 27.8847C23.4639 28.4688 22.4718 29.3249 21.636 30.4042C20.8003 31.4835 20.1374 32.7647 19.6851 34.1749Z" fill="#9C62F3"/>
<path d="M100.449 102.85C100.115 106.906 98.0618 112.816 91.6521 114.5H48.7987C51.5728 112.886 54.0074 109.364 54.4336 103.036C54.4917 102.173 55.1812 101.5 56 101.5H99.0878C99.9034 101.5 100.509 102.126 100.449 102.85Z" fill="#9C62F3" stroke="#9C62F3"/>
<circle cx="92" cy="43" r="22" fill="#191926" stroke="#F5EFFF" stroke-width="2"/>
<path d="M45 40H70" stroke="#F5EFFF" stroke-width="2" stroke-linecap="round" stroke-linejoin="round"/>
<path d="M45 50H71" stroke="#F5EFFF" stroke-width="2" stroke-linecap="round" stroke-linejoin="round"/>
<path d="M45 60H62" stroke="#F5EFFF" stroke-width="2" stroke-linecap="round" stroke-linejoin="round"/>
<path d="M82 41.6667L90.2821 51L101 35" stroke="#F5EFFF" stroke-width="3" stroke-linecap="round" stroke-linejoin="round"/>
</svg>
