<svg width="36" height="36" viewBox="0 0 36 36" fill="none" xmlns="http://www.w3.org/2000/svg">
<rect width="36" height="36" rx="18" fill="#F5F7FA"/>
<path fill-rule="evenodd" clip-rule="evenodd" d="M18 9C14.6863 9 12 11.6863 12 15V20.111C11.714 20.1805 11.4358 20.2821 11.1708 20.4146L10.1957 20.9021C9.46291 21.2685 9 22.0176 9 22.8369C9 24.0315 9.96846 25 11.1631 25H24.8369C26.0315 25 27 24.0315 27 22.8369C27 22.0176 26.5371 21.2685 25.8043 20.9021L24.8292 20.4146C24.5642 20.2821 24.286 20.1805 24 20.111V15C24 11.6863 21.3137 9 18 9Z" fill="#AB74FF"/>
<path d="M12 20.111L12.1889 20.8884L12.8 20.7399V20.111H12ZM11.1708 20.4146L11.5286 21.1301L11.5286 21.1301L11.1708 20.4146ZM10.1957 20.9021L9.83797 20.1866L9.83797 20.1866L10.1957 20.9021ZM24 20.111H23.2V20.7399L23.8111 20.8884L24 20.111ZM12.8 15C12.8 12.1281 15.1281 9.8 18 9.8V8.2C14.2445 8.2 11.2 11.2445 11.2 15H12.8ZM12.8 20.111V15H11.2V20.111H12.8ZM11.8111 19.3336C11.4669 19.4172 11.132 19.5396 10.8131 19.699L11.5286 21.1301C11.7396 21.0246 11.9611 20.9437 12.1889 20.8884L11.8111 19.3336ZM10.8131 19.699L9.83797 20.1866L10.5535 21.6177L11.5286 21.1301L10.8131 19.699ZM9.83797 20.1866C8.83411 20.6885 8.2 21.7145 8.2 22.8369H9.8C9.8 22.3206 10.0917 21.8486 10.5535 21.6177L9.83797 20.1866ZM8.2 22.8369C8.2 24.4734 9.52663 25.8 11.1631 25.8V24.2C10.4103 24.2 9.8 23.5897 9.8 22.8369H8.2ZM11.1631 25.8H24.8369V24.2H11.1631V25.8ZM24.8369 25.8C26.4734 25.8 27.8 24.4734 27.8 22.8369H26.2C26.2 23.5897 25.5897 24.2 24.8369 24.2V25.8ZM27.8 22.8369C27.8 21.7145 27.1659 20.6885 26.162 20.1866L25.4465 21.6177C25.9083 21.8486 26.2 22.3206 26.2 22.8369H27.8ZM26.162 20.1866L25.187 19.6991L24.4714 21.1301L25.4465 21.6177L26.162 20.1866ZM25.187 19.6991C24.868 19.5396 24.5331 19.4172 24.1889 19.3336L23.8111 20.8884C24.0389 20.9437 24.2604 21.0246 24.4714 21.1301L25.187 19.6991ZM23.2 15V20.111H24.8V15H23.2ZM18 9.8C20.8719 9.8 23.2 12.1281 23.2 15H24.8C24.8 11.2445 21.7555 8.2 18 8.2V9.8Z" fill="#AB74FF"/>
<path d="M15 27.5H21" stroke="#AB74FF" stroke-width="1.6" stroke-linecap="round"/>
</svg>
