<svg width="500" height="500" viewBox="0 0 500 500" fill="none" xmlns="http://www.w3.org/2000/svg">
<g clip-path="url(#clip0_404_11922)">
<rect width="500" height="500" fill="#DFDFDF"/>
<path fill-rule="evenodd" clip-rule="evenodd" d="M187.402 135.972C263.714 131.315 291.016 186.735 295.128 215.027C299.593 230.8 314.559 234.907 321.913 235.029C322.212 235.034 322.48 235.003 322.771 234.934C397.219 217.157 594.614 63.833 690.237 -15.6936C692.81 -17.8336 696.644 -15.9528 696.656 -12.6061C696.898 59.3637 675.862 121.013 644.936 172.115C666.257 154.15 686.355 134.773 704.538 113.98C705.61 112.754 707.621 113.258 707.972 114.849C718.117 160.864 705.636 186.881 694.165 189.935C693.11 190.216 692.251 191.124 692.245 192.216C692.037 233.221 655.975 254.709 636.343 260.903C635.471 261.178 634.888 262.014 634.903 262.929C635.739 312.978 597.879 329.488 577.424 331.722C576.615 331.81 575.935 332.372 575.681 333.144C563.152 371.179 533.265 385.537 512.386 389.354C504.198 390.851 495.867 389.368 487.839 387.173L461.315 379.919C481.98 481.166 437.668 646.759 408.495 728.319C407.72 730.486 405.303 731.464 403.19 730.554L197.862 642.035C195.169 640.874 194.6 637.304 196.799 635.363L350.979 499.27C353.375 497.155 352.447 493.189 349.411 492.189C263.654 463.952 217.353 347.789 204.077 289.472C203.728 287.937 202.528 286.794 201 286.42C162.834 277.086 139.06 242.793 130.956 224.758C130.414 223.552 129.347 222.663 128.053 222.392L-170.084 159.956L122.948 179.504C124.511 179.608 125.987 178.78 126.77 177.423C144.453 146.782 174.372 137.008 187.402 135.972ZM190.421 190.658C196.008 190.062 200.055 185.048 199.458 179.46C198.861 173.873 193.848 169.826 188.26 170.423C182.672 171.02 178.626 176.033 179.223 181.621C179.819 187.209 184.833 191.255 190.421 190.658Z" fill="white"/>
</g>
<defs>
<clipPath id="clip0_404_11922">
<rect width="500" height="500" fill="white"/>
</clipPath>
</defs>
</svg>
