<svg width="132" height="132" viewBox="0 0 132 132" fill="none" xmlns="http://www.w3.org/2000/svg">
<g id="Group 33584">
<circle id="Ellipse 1406" cx="66" cy="66" r="66" fill="#F5EFFF"/>
<rect id="Rectangle 817" x="34" y="20" width="62" height="91" rx="2" fill="#191926"/>
<path id="Vector 3058" d="M78.2745 26.5501L33.2745 20.3151C32.0723 20.1486 31 21.0825 31 22.2962V110.038C31 111.046 31.7494 111.896 32.749 112.022L77.749 117.715C78.9437 117.866 80 116.935 80 115.731V28.5312C80 27.5326 79.2635 26.6871 78.2745 26.5501Z" fill="#AB74FF" stroke="#F5EFFF" stroke-width="2"/>
<rect id="Rectangle 818" x="70" y="66" width="4" height="8" rx="2" fill="#F5EFFF"/>
<path id="Union" fill-rule="evenodd" clip-rule="evenodd" d="M104.059 77.2591L114.769 70.0451C115.357 69.6487 115.357 68.7827 114.769 68.3863L104.059 61.1723C103.394 60.7249 102.5 61.2008 102.5 62.0017V65.7157H90.5C88.567 65.7157 87 67.2827 87 69.2157C87 71.1487 88.567 72.7157 90.5 72.7157H102.5V76.4297C102.5 77.2305 103.394 77.7065 104.059 77.2591Z" fill="#AB74FF"/>
</g>
</svg>
