<svg width="18" height="18" viewBox="0 0 18 18" fill="none" xmlns="http://www.w3.org/2000/svg">
<g id="icon/&#8;change">
<path id="Vector 2952" d="M6.42426 3.32574C6.18995 3.09142 5.81005 3.09142 5.57574 3.32574L1.75736 7.14411C1.52304 7.37843 1.52304 7.75833 1.75736 7.99264C1.99167 8.22696 2.37157 8.22696 2.60589 7.99264L6 4.59853L9.39411 7.99264C9.62843 8.22696 10.0083 8.22696 10.2426 7.99264C10.477 7.75833 10.477 7.37843 10.2426 7.14411L6.42426 3.32574ZM5.4 15.75C5.4 16.0814 5.66863 16.35 6 16.35C6.33137 16.35 6.6 16.0814 6.6 15.75H5.4ZM5.4 3.75V15.75H6.6V3.75H5.4Z" fill="#A5A5A5"/>
<path id="Vector 2953" d="M11.5757 14.6743C11.8101 14.9086 12.1899 14.9086 12.4243 14.6743L16.2426 10.8559C16.477 10.6216 16.477 10.2417 16.2426 10.0074C16.0083 9.77304 15.6284 9.77304 15.3941 10.0074L12 13.4015L8.60589 10.0074C8.37157 9.77304 7.99167 9.77304 7.75736 10.0074C7.52304 10.2417 7.52304 10.6216 7.75736 10.8559L11.5757 14.6743ZM12.6 2.25C12.6 1.91863 12.3314 1.65 12 1.65C11.6686 1.65 11.4 1.91863 11.4 2.25L12.6 2.25ZM12.6 14.25L12.6 2.25L11.4 2.25L11.4 14.25L12.6 14.25Z" fill="#DFDFDF"/>
</g>
</svg>
