<svg width="350" height="265" viewBox="0 0 350 265" fill="none" xmlns="http://www.w3.org/2000/svg">
<path d="M126.74 56.89C126.74 58.76 128.26 60.28 130.13 60.28C132 60.28 133.52 58.76 133.52 56.89C133.52 55.02 132 53.5 130.13 53.5C128.26 53.5 126.74 55.02 126.74 56.89Z" fill="white"/>
<path d="M162.44 175.26C167.57 171.63 166.67 163.31 161.82 159.31C143.36 144.12 134.57 115.44 131.74 97.68C131.25 94.63 129.12 92.12 126.4 90.65C118.21 86.23 113.04 78.4 110.48 72.68C109.42 70.31 107.54 68.32 105.07 67.52L11.8 37.36L104.05 53.48C107.08 54.01 110.08 52.65 112.23 50.44C118.91 43.62 127.26 41.95 131.07 42.06C156.52 43.22 163.6 62.54 163.96 72.06C164.8 76.95 168.85 78.96 171.4 79.51C171.98 79.63 172.53 79.62 173.11 79.53C177.64 78.84 183.53 76.93 190.33 74.15V0H86.71C86.71 8.17 80.08 14.8 71.91 14.8C63.74 14.8 57.11 8.17 57.11 0H0V196.68H57.1C57.1 188.5 63.73 181.88 71.9 181.88C80.07 181.88 86.7 188.51 86.7 196.68H132.23L162.44 175.26ZM70.77 16.54H73.92V24.29H70.77V16.54ZM70.77 32.04H73.92V39.79H70.77V32.04ZM73.92 179.3H70.77V171.55H73.92V179.3ZM73.92 163.8H70.77V156.05H73.92V163.8ZM73.92 148.3H70.77V140.55H73.92V148.3ZM73.92 132.8H70.77V125.05H73.92V132.8ZM73.92 117.3H70.77V109.55H73.92V117.3ZM73.92 101.8H70.77V94.05H73.92V101.8ZM73.92 86.3H70.77V78.55H73.92V86.3ZM73.92 70.8H70.77V63.05H73.92V70.8Z" fill="white"/>
<path d="M314.75 95.76C330.13 86.91 337 70.52 337 51.5C337 23.18 317.52 0 289.2 0H203.02V68.48C230.49 55.33 266.45 33.38 291.69 17.02C297.21 13.44 304.29 17.76 302.87 24.18C298.91 42.14 291.07 57.43 281.35 70.21C287.28 66.21 292.99 61.91 298.39 57.29C300.82 55.21 304.62 56.62 304.61 59.82C304.56 68.25 302.29 73.75 299.77 76.28C299.7 76.35 299.63 76.43 299.55 76.5C299.49 76.56 299.43 76.62 299.37 76.68C297.92 78.12 296.23 79.8 295.73 81.7C293.13 91.66 284.16 96.75 277.82 98.69C276.1 99.22 274.79 100.68 274.48 102.45C272.22 115.46 262.25 119.79 255.53 120.56C253.94 120.74 252.5 121.66 251.74 123.07C250.56 125.27 249.2 127.16 247.74 128.78C239.18 138.23 225.83 136.36 213.14 132.25C214.95 150.47 209.97 174.14 203.01 196.23V196.67H298.18C326.79 196.67 349.99 173.47 349.99 144.86C349.99 122.04 335.23 102.66 314.74 95.75L314.75 95.76Z" fill="white"/>
<path d="M328.687 209H337V250.562H328.687V248.013C327.838 248.973 326.822 249.758 325.64 250.368C324.476 250.978 323.146 251.282 321.65 251.282C319.636 251.282 317.752 250.904 315.997 250.146C314.242 249.389 312.691 248.345 311.342 247.015C310.012 245.667 308.969 244.115 308.211 242.36C307.454 240.606 307.075 238.721 307.075 236.708C307.075 234.695 307.454 232.81 308.211 231.056C308.969 229.301 310.012 227.758 311.342 226.428C312.691 225.08 314.242 224.027 315.997 223.27C317.752 222.512 319.636 222.134 321.65 222.134C323.146 222.134 324.476 222.438 325.64 223.048C326.822 223.639 327.838 224.424 328.687 225.403V209ZM321.76 243.302C322.906 243.302 323.949 243.007 324.891 242.416C325.833 241.825 326.582 241.03 327.136 240.033C327.69 239.035 327.967 237.927 327.967 236.708C327.967 235.489 327.69 234.38 327.136 233.383C326.582 232.386 325.833 231.591 324.891 231C323.949 230.409 322.906 230.113 321.76 230.113C320.615 230.113 319.571 230.409 318.629 231C317.706 231.591 316.967 232.386 316.413 233.383C315.877 234.38 315.609 235.489 315.609 236.708C315.609 237.927 315.886 239.035 316.44 240.033C316.995 241.03 317.734 241.825 318.657 242.416C319.599 243.007 320.634 243.302 321.76 243.302Z" fill="white"/>
<path d="M288.796 250.562L288.769 222.854H297.081L297.109 224.6C298.032 223.805 299.085 223.186 300.267 222.743C301.45 222.3 302.696 222.078 304.008 222.078C305.005 222.078 306.021 222.226 307.056 222.521L303.786 230.945C303.14 230.649 302.475 230.501 301.791 230.501C300.923 230.501 300.129 230.714 299.408 231.139C298.706 231.545 298.143 232.108 297.718 232.829C297.312 233.531 297.109 234.316 297.109 235.184V250.562H288.796Z" fill="white"/>
<path d="M274.157 222.854H282.469V250.562H274.157V222.854ZM278.369 219.973C277.168 219.973 276.161 219.575 275.349 218.781C274.536 217.987 274.129 216.999 274.129 215.816C274.129 214.653 274.536 213.674 275.349 212.879C276.161 212.067 277.159 211.66 278.341 211.66C279.505 211.66 280.484 212.067 281.278 212.879C282.091 213.674 282.497 214.653 282.497 215.816C282.497 216.999 282.1 217.987 281.306 218.781C280.53 219.575 279.551 219.973 278.369 219.973Z" fill="white"/>
<path d="M256.17 222.078C258.867 222.078 261.323 222.734 263.54 224.045C265.757 225.357 267.521 227.121 268.832 229.338C270.144 231.536 270.8 233.974 270.8 236.653C270.8 238.666 270.421 240.559 269.664 242.333C268.906 244.106 267.853 245.667 266.505 247.015C265.175 248.345 263.623 249.389 261.85 250.146C260.095 250.904 258.202 251.282 256.17 251.282C254.71 251.282 253.399 250.968 252.235 250.34C251.072 249.712 250.056 248.918 249.187 247.957V250.562H240.875V209H249.187V225.403C250.056 224.424 251.072 223.63 252.235 223.02C253.399 222.392 254.71 222.078 256.17 222.078ZM256.059 243.247C257.204 243.247 258.248 242.951 259.19 242.36C260.132 241.769 260.88 240.975 261.434 239.977C261.988 238.98 262.266 237.872 262.266 236.653C262.266 235.452 261.988 234.353 261.434 233.355C260.88 232.358 260.132 231.564 259.19 230.972C258.248 230.363 257.204 230.058 256.059 230.058C254.932 230.058 253.898 230.363 252.956 230.972C252.032 231.564 251.293 232.358 250.739 233.355C250.185 234.353 249.908 235.452 249.908 236.653C249.908 237.872 250.185 238.98 250.739 239.977C251.293 240.975 252.032 241.769 252.956 242.36C253.898 242.951 254.932 243.247 256.059 243.247Z" fill="white"/>
<path d="M225.915 222.854H234.228V250.839C234.228 252.945 233.803 254.829 232.953 256.492C232.122 258.173 230.977 259.604 229.517 260.786C228.058 261.969 226.377 262.864 224.474 263.474C222.59 264.102 220.595 264.416 218.489 264.416C216.531 264.416 214.657 264.037 212.865 263.28C211.073 262.541 209.475 261.507 208.071 260.177C206.667 258.847 205.559 257.304 204.746 255.55L212.338 252.114C212.726 252.945 213.234 253.647 213.862 254.22C214.49 254.811 215.201 255.263 215.996 255.577C216.79 255.891 217.621 256.048 218.489 256.048C219.45 256.048 220.374 255.947 221.26 255.744C222.147 255.54 222.941 255.226 223.643 254.801C224.345 254.377 224.899 253.832 225.306 253.167C225.712 252.52 225.915 251.744 225.915 250.839V248.124C225.084 249.066 224.096 249.832 222.95 250.424C221.824 250.996 220.521 251.283 219.044 251.283C217.03 251.283 215.146 250.904 213.391 250.147C211.636 249.389 210.085 248.346 208.736 247.016C207.406 245.667 206.363 244.115 205.605 242.361C204.848 240.606 204.469 238.722 204.469 236.708C204.469 234.695 204.848 232.811 205.605 231.056C206.363 229.301 207.406 227.758 208.736 226.429C210.085 225.08 211.636 224.027 213.391 223.27C215.146 222.512 217.03 222.134 219.044 222.134C220.521 222.134 221.824 222.429 222.95 223.02C224.096 223.593 225.084 224.35 225.915 225.292V222.854ZM219.154 243.303C220.3 243.303 221.343 243.007 222.285 242.416C223.228 241.825 223.976 241.031 224.53 240.033C225.084 239.036 225.361 237.927 225.361 236.708C225.361 235.489 225.084 234.381 224.53 233.383C223.976 232.386 223.228 231.591 222.285 231C221.343 230.409 220.3 230.114 219.154 230.114C218.028 230.114 216.993 230.409 216.051 231C215.128 231.591 214.389 232.386 213.835 233.383C213.28 234.381 213.003 235.489 213.003 236.708C213.003 237.927 213.28 239.036 213.835 240.033C214.389 241.031 215.128 241.825 216.051 242.416C216.993 243.007 218.028 243.303 219.154 243.303Z" fill="white"/>
<path d="M201.141 232.857V250.562H192.828V235.184C192.828 234.316 192.616 233.531 192.191 232.829C191.766 232.108 191.203 231.545 190.501 231.139C189.799 230.714 189.014 230.501 188.146 230.501C187.278 230.501 186.483 230.714 185.763 231.139C185.061 231.545 184.498 232.108 184.073 232.829C183.666 233.531 183.463 234.316 183.463 235.184V250.562H175.151L175.123 222.854H183.435L183.463 224.6C184.387 223.805 185.44 223.186 186.622 222.743C187.804 222.3 189.051 222.078 190.362 222.078C192.357 222.078 194.168 222.568 195.793 223.547C197.419 224.507 198.712 225.8 199.672 227.426C200.651 229.051 201.141 230.862 201.141 232.857Z" fill="white"/>
<path d="M160.512 222.854H168.824V250.562H160.512V222.854ZM164.723 219.973C163.523 219.973 162.516 219.575 161.703 218.781C160.89 217.987 160.484 216.999 160.484 215.816C160.484 214.653 160.89 213.674 161.703 212.879C162.516 212.067 163.513 211.66 164.695 211.66C165.859 211.66 166.838 212.067 167.633 212.879C168.445 213.674 168.852 214.653 168.852 215.816C168.852 216.999 168.455 217.987 167.66 218.781C166.884 219.575 165.905 219.973 164.723 219.973Z" fill="white"/>
<path d="M111.265 250.562V222.854H119.577V224.6C120.501 223.805 121.554 223.186 122.736 222.743C123.918 222.3 125.165 222.078 126.476 222.078C128.324 222.078 130.023 222.503 131.575 223.353C133.126 224.184 134.382 225.301 135.343 226.705C136.322 225.301 137.578 224.184 139.111 223.353C140.663 222.503 142.353 222.078 144.182 222.078C146.177 222.078 147.987 222.568 149.612 223.547C151.238 224.507 152.531 225.8 153.492 227.426C154.471 229.051 154.96 230.862 154.96 232.857V250.562H146.648V235.184C146.648 234.316 146.435 233.531 146.01 232.829C145.586 232.127 145.022 231.563 144.32 231.139C143.618 230.714 142.833 230.501 141.965 230.501C141.097 230.501 140.303 230.714 139.582 231.139C138.88 231.563 138.317 232.127 137.892 232.829C137.467 233.531 137.255 234.316 137.255 235.184V250.562H128.942V235.184C128.942 234.316 128.73 233.531 128.305 232.829C127.899 232.127 127.335 231.563 126.615 231.139C125.913 230.714 125.128 230.501 124.26 230.501C123.41 230.501 122.625 230.714 121.905 231.139C121.203 231.563 120.639 232.127 120.214 232.829C119.789 233.531 119.577 234.316 119.577 235.184V250.562H111.265Z" fill="white"/>
<path d="M62.0181 250.562V222.854H70.3305V224.6C71.254 223.805 72.3069 223.186 73.4892 222.743C74.6714 222.3 75.9182 222.078 77.2297 222.078C79.0769 222.078 80.7763 222.503 82.328 223.353C83.8796 224.184 85.1357 225.301 86.0963 226.705C87.0753 225.301 88.3314 224.184 89.8645 223.353C91.4162 222.503 93.1064 222.078 94.9351 222.078C96.9301 222.078 98.7403 222.568 100.366 223.547C101.991 224.507 103.284 225.8 104.245 227.426C105.224 229.051 105.713 230.862 105.713 232.857V250.562H97.4011V235.184C97.4011 234.316 97.1887 233.531 96.7638 232.829C96.339 232.127 95.7756 231.563 95.0736 231.139C94.3717 230.714 93.5866 230.501 92.7185 230.501C91.8503 230.501 91.056 230.714 90.3356 231.139C89.6336 231.563 89.0703 232.127 88.6454 232.829C88.2205 233.531 88.0081 234.316 88.0081 235.184V250.562H79.6957V235.184C79.6957 234.316 79.4833 233.531 79.0585 232.829C78.6521 232.127 78.0887 231.563 77.3683 231.139C76.6663 230.714 75.8813 230.501 75.0131 230.501C74.1634 230.501 73.3783 230.714 72.6579 231.139C71.956 231.563 71.3926 232.127 70.9677 232.829C70.5429 233.531 70.3305 234.316 70.3305 235.184V250.562H62.0181Z" fill="white"/>
<path d="M30.4419 240.503V222.854H38.7543V238.176C38.7543 239.044 38.9667 239.838 39.3916 240.559C39.8164 241.261 40.3798 241.824 41.0817 242.249C41.8022 242.655 42.5872 242.859 43.4369 242.859C44.3051 242.859 45.0902 242.655 45.7921 242.249C46.5125 241.824 47.0759 241.261 47.4823 240.559C47.9071 239.838 48.1196 239.044 48.1196 238.176V222.854H56.4319L56.4597 250.561H48.1473L48.1196 248.76C47.196 249.555 46.1431 250.174 44.9609 250.617C43.7787 251.06 42.5318 251.282 41.2203 251.282C39.2438 251.282 37.4335 250.802 35.7895 249.841C34.164 248.862 32.8617 247.56 31.8827 245.934C30.9222 244.309 30.4419 242.498 30.4419 240.503Z" fill="white"/>
<path d="M26.0178 232.857V250.562H17.7054V235.184C17.7054 234.316 17.4929 233.531 17.0681 232.829C16.6432 232.108 16.0798 231.545 15.3779 231.139C14.676 230.714 13.8909 230.501 13.0227 230.501C12.1546 230.501 11.3603 230.714 10.6398 231.139C9.93792 231.545 9.37452 232.108 8.94967 232.829C8.54328 233.531 8.34009 234.316 8.34009 235.184V250.562H0.0277079L0 209H8.31238L8.34009 224.6C9.26369 223.805 10.3166 223.186 11.4988 222.743C12.681 222.3 13.9279 222.078 15.2394 222.078C17.2343 222.078 19.0446 222.568 20.6701 223.547C22.2957 224.507 23.5887 225.8 24.5492 227.426C25.5283 229.051 26.0178 230.862 26.0178 232.857Z" fill="white"/>
</svg>
