<svg width="350" height="197" viewBox="0 0 350 197" fill="none" xmlns="http://www.w3.org/2000/svg">
<path d="M126.74 56.89C126.74 58.76 128.26 60.28 130.13 60.28C132 60.28 133.52 58.76 133.52 56.89C133.52 55.02 132 53.5 130.13 53.5C128.26 53.5 126.74 55.02 126.74 56.89Z" fill="#AB74FF"/>
<path d="M162.44 175.26C167.57 171.63 166.67 163.31 161.82 159.31C143.36 144.12 134.57 115.44 131.74 97.68C131.25 94.63 129.12 92.12 126.4 90.65C118.21 86.23 113.04 78.4 110.48 72.68C109.42 70.31 107.54 68.32 105.07 67.52L11.8 37.36L104.05 53.48C107.08 54.01 110.08 52.65 112.23 50.44C118.91 43.62 127.26 41.95 131.07 42.06C156.52 43.22 163.6 62.54 163.96 72.06C164.8 76.95 168.85 78.96 171.4 79.51C171.98 79.63 172.53 79.62 173.11 79.53C177.64 78.84 183.53 76.93 190.33 74.15V0H86.71C86.71 8.17 80.08 14.8 71.91 14.8C63.74 14.8 57.11 8.17 57.11 0H0V196.68H57.1C57.1 188.5 63.73 181.88 71.9 181.88C80.07 181.88 86.7 188.51 86.7 196.68H132.23L162.44 175.26ZM70.77 16.54H73.92V24.29H70.77V16.54ZM70.77 32.04H73.92V39.79H70.77V32.04ZM73.92 179.3H70.77V171.55H73.92V179.3ZM73.92 163.8H70.77V156.05H73.92V163.8ZM73.92 148.3H70.77V140.55H73.92V148.3ZM73.92 132.8H70.77V125.05H73.92V132.8ZM73.92 117.3H70.77V109.55H73.92V117.3ZM73.92 101.8H70.77V94.05H73.92V101.8ZM73.92 86.3H70.77V78.55H73.92V86.3ZM73.92 70.8H70.77V63.05H73.92V70.8Z" fill="#AB74FF"/>
<path d="M314.75 95.76C330.13 86.91 337 70.52 337 51.5C337 23.18 317.52 0 289.2 0H203.02V68.48C230.49 55.33 266.45 33.38 291.69 17.02C297.21 13.44 304.29 17.76 302.87 24.18C298.91 42.14 291.07 57.43 281.35 70.21C287.28 66.21 292.99 61.91 298.39 57.29C300.82 55.21 304.62 56.62 304.61 59.82C304.56 68.25 302.29 73.75 299.77 76.28C299.7 76.35 299.63 76.43 299.55 76.5C299.49 76.56 299.43 76.62 299.37 76.68C297.92 78.12 296.23 79.8 295.73 81.7C293.13 91.66 284.16 96.75 277.82 98.69C276.1 99.22 274.79 100.68 274.48 102.45C272.22 115.46 262.25 119.79 255.53 120.56C253.94 120.74 252.5 121.66 251.74 123.07C250.56 125.27 249.2 127.16 247.74 128.78C239.18 138.23 225.83 136.36 213.14 132.25C214.95 150.47 209.97 174.14 203.01 196.23V196.67H298.18C326.79 196.67 349.99 173.47 349.99 144.86C349.99 122.04 335.23 102.66 314.74 95.75L314.75 95.76Z" fill="#AB74FF"/>
</svg>
